<?xml version="1.0" encoding="UTF-8"?>
<svg width="639px" height="355px" viewBox="0 0 639 355" version="1.1" xmlns="http://www.w3.org/2000/svg" xmlns:xlink="http://www.w3.org/1999/xlink">
    <!-- Generator: Sketch 55.2 (78181) - https://sketchapp.com -->
    <title>Untitled 4</title>
    <desc>Created with Sketch.</desc>
    <defs>
        <linearGradient x1="50.00005%" y1="0%" x2="50.00005%" y2="100%" id="linearGradient-1">
            <stop stop-color="#FF4081" offset="0%"></stop>
            <stop stop-color="#FF1744" offset="100%"></stop>
        </linearGradient>
        <linearGradient x1="50.0000891%" y1="0%" x2="50.0000891%" y2="100%" id="linearGradient-2">
            <stop stop-color="#FF4081" offset="0%"></stop>
            <stop stop-color="#FF1744" offset="100%"></stop>
        </linearGradient>
    </defs>
    <g id="Page-1" stroke="none" stroke-width="1" fill="none" fill-rule="evenodd">
        <g id="border" transform="translate(0.177597, 0.000000)" fill="#FFFFFF" fill-rule="nonzero">
            <path d="M290.844793,0 C255.94666,0 227.555194,28.3903993 227.555194,63.2885318 L227.555194,177.066662 C227.555194,204.905595 204.906662,227.555194 177.066662,227.555194 C149.226663,227.555194 126.57813,204.905595 126.57813,177.066662 L126.57813,63.2885318 C126.57813,28.3903993 98.1866642,0 63.2885318,0 C28.391466,0 -2.84217094e-14,28.3903993 -2.84217094e-14,63.2885318 L-2.84217094e-14,177.066662 C-2.84217094e-14,274.700793 79.4314647,354.133324 177.066662,354.133324 C274.70186,354.133324 354.133324,274.700793 354.133324,177.066662 L354.133324,63.2885318 C354.133324,28.3903993 325.741859,0 290.844793,0" id="path2796-path" transform="translate(177.066662, 177.066662) scale(-1, 1) rotate(-180.000000) translate(-177.066662, -177.066662) "></path>
            <path d="M575.289052,0.00053333332 C477.654921,0.00053333332 398.22239,79.431998 398.22239,177.067196 L398.22239,290.845326 C398.22239,325.742392 426.612789,354.133858 461.510922,354.133858 C496.409054,354.133858 524.80052,325.742392 524.80052,290.845326 L524.80052,177.067196 C524.80052,149.227196 547.449053,126.578664 575.289052,126.578664 C610.187185,126.578664 638.577584,98.1871975 638.577584,63.2890651 C638.577584,28.3909326 610.187185,0.00053333332 575.289052,0.00053333332" id="path2804-path" transform="translate(518.399987, 177.067196) scale(-1, 1) rotate(-180.000000) translate(-518.399987, -177.067196) "></path>
        </g>
        <g id="text" transform="translate(6.577064, 6.400533)" fill-rule="nonzero">
            <path d="M2.84217094e-14,170.666662 L2.84217094e-14,56.8885319 C2.84217094e-14,25.469866 25.4709327,0 56.8895986,0 L56.8895986,0 C88.3082645,0 113.77813,25.469866 113.77813,56.8885319 L113.77813,56.8885319 L113.77813,170.666662 C113.77813,202.085328 139.247997,227.556261 170.666662,227.556261 L170.666662,227.556261 C202.086395,227.556261 227.556261,202.085328 227.556261,170.666662 L227.556261,170.666662 L227.556261,56.8885319 C227.556261,25.469866 253.026127,0 284.444793,0 L284.444793,0 C315.863459,0 341.334391,25.469866 341.334391,56.8885319 L341.334391,56.8885319 L341.334391,170.666662 C341.334391,264.923727 264.923727,341.333325 170.666662,341.333325 L170.666662,341.333325 C76.4117314,341.333325 2.84217094e-14,264.923727 2.84217094e-14,170.666662" id="path2828" fill="url(#linearGradient-1)" transform="translate(170.667196, 170.666662) scale(-1, 1) rotate(-180.000000) translate(-170.667196, -170.666662) "></path>
            <path d="M398.222923,284.444793 L398.222923,170.666662 C398.222923,76.4106648 474.633588,0 568.889586,0 L568.889586,0 C600.308252,0 625.778118,25.469866 625.778118,56.8885319 L625.778118,56.8885319 C625.778118,88.3071978 600.308252,113.77813 568.889586,113.77813 L568.889586,113.77813 C537.47092,113.77813 512.001054,139.247997 512.001054,170.666662 L512.001054,170.666662 L512.001054,284.444793 C512.001054,315.863459 486.530121,341.333325 455.111455,341.333325 L455.111455,341.333325 C423.692789,341.333325 398.222923,315.863459 398.222923,284.444793" id="path2848" fill="url(#linearGradient-2)" transform="translate(512.000521, 170.666662) scale(-1, 1) rotate(-180.000000) translate(-512.000521, -170.666662) "></path>
        </g>
    </g>
</svg>